<svg width="123" height="32" viewBox="0 0 123 32" fill="none" xmlns="http://www.w3.org/2000/svg">
<g clip-path="url(#clip0_1_633)">
<path fill-rule="evenodd" clip-rule="evenodd" d="M39.3501 24.5065L40.8851 20.9395C42.5432 22.1793 44.7523 22.8238 46.9318 22.8238C48.5407 22.8238 49.5591 22.2039 49.5591 21.2642C49.5345 18.6369 39.9208 20.6935 39.847 14.1056C39.8224 10.76 42.7941 8.18193 47.0056 8.18193C49.5099 8.18193 52.0093 8.80185 53.7952 10.2139L52.3586 13.8547C50.7251 12.8116 48.6932 12.0687 46.7596 12.0687C45.446 12.0687 44.5801 12.6886 44.5801 13.4808C44.6047 16.0588 54.2921 14.6468 54.3905 20.9395C54.3905 24.3589 51.4927 26.7648 47.3303 26.7648C44.2799 26.7598 41.4805 26.0415 39.3501 24.5065ZM98.2966 19.6504C97.5291 20.9887 96.0925 21.9038 94.4295 21.9038C91.9744 21.9038 89.9966 19.921 89.9966 17.4709C89.9966 15.0207 91.9793 13.038 94.4295 13.038C96.0875 13.038 97.5291 13.9531 98.2966 15.2913L102.533 12.9396C100.948 10.1155 97.8981 8.18193 94.4295 8.18193C89.2979 8.18193 85.1356 12.3442 85.1356 17.4758C85.1356 22.6074 89.2979 26.7697 94.4295 26.7697C97.9227 26.7697 100.948 24.8607 102.533 22.012L98.2966 19.6504ZM56.5209 0.47229H61.8247V26.4155H56.5209V0.47229ZM104.614 0.47229V26.4155H109.918V18.632L116.21 26.4155H123L114.995 17.1708L122.405 8.54601H115.91L109.913 15.7046V0.47229H104.614Z" fill="#A2BDAA"/>
<path d="M77.5835 19.6996C76.816 20.9641 75.2318 21.9038 73.4458 21.9038C70.9907 21.9038 69.0129 19.921 69.0129 17.4709C69.0129 15.0207 70.9957 13.038 73.4458 13.038C75.2318 13.038 76.816 14.0269 77.5835 15.3159V19.6996ZM77.5835 8.55092V10.6567C76.7176 9.19544 74.5627 8.177 72.3044 8.177C67.6451 8.177 63.9797 12.2901 63.9797 17.4463C63.9797 22.6024 67.6451 26.7648 72.3044 26.7648C74.5577 26.7648 76.7127 25.7512 77.5835 24.2851V26.3908H82.8873V8.55092H77.5835Z" fill="#A2BDAA"/>
<path fill-rule="evenodd" clip-rule="evenodd" d="M6.56814 19.6751C6.56814 21.4857 5.1069 22.9469 3.29634 22.9469C1.48578 22.9469 0.0245361 21.4808 0.0245361 19.6751C0.0245361 17.8695 1.48578 16.4033 3.29634 16.4033H6.56814V19.6751ZM8.20158 19.6751C8.20158 17.8646 9.66282 16.4033 11.4734 16.4033C13.2839 16.4033 14.7452 17.8646 14.7452 19.6751V27.8522C14.7452 29.6627 13.2839 31.124 11.4734 31.124C9.66282 31.124 8.20158 29.6627 8.20158 27.8522V19.6751Z" fill="#A2BDAA"/>
<path fill-rule="evenodd" clip-rule="evenodd" d="M11.4734 6.5436C9.66288 6.5436 8.20164 5.08236 8.20164 3.2718C8.20164 1.46124 9.66288 0 11.4734 0C13.284 0 14.7452 1.46124 14.7452 3.2718V6.5436H11.4734ZM11.4734 8.20164C13.284 8.20164 14.7452 9.66288 14.7452 11.4734C14.7452 13.284 13.284 14.7452 11.4734 14.7452H3.2718C1.46124 14.7452 0 13.2791 0 11.4734C0 9.6678 1.46124 8.20164 3.2718 8.20164H11.4734Z" fill="#A2BDAA"/>
<path fill-rule="evenodd" clip-rule="evenodd" d="M24.5804 11.4734C24.5804 9.66288 26.0416 8.20164 27.8522 8.20164C29.6627 8.20164 31.124 9.66288 31.124 11.4734C31.124 13.284 29.6627 14.7452 27.8522 14.7452H24.5804V11.4734ZM22.9469 11.4734C22.9469 13.284 21.4857 14.7452 19.6751 14.7452C17.8646 14.7452 16.4033 13.284 16.4033 11.4734V3.2718C16.4033 1.46124 17.8646 0 19.6751 0C21.4857 0 22.9469 1.46124 22.9469 3.2718V11.4734Z" fill="#A2BDAA"/>
<path fill-rule="evenodd" clip-rule="evenodd" d="M19.6751 24.5804C21.4857 24.5804 22.9469 26.0416 22.9469 27.8522C22.9469 29.6627 21.4857 31.124 19.6751 31.124C17.8646 31.124 16.4033 29.6627 16.4033 27.8522V24.5804H19.6751ZM19.6751 22.9469C17.8646 22.9469 16.4033 21.4857 16.4033 19.6751C16.4033 17.8646 17.8646 16.4033 19.6751 16.4033H27.8767C29.6873 16.4033 31.1485 17.8646 31.1485 19.6751C31.1485 21.4857 29.6873 22.9469 27.8767 22.9469H19.6751Z" fill="#A2BDAA"/>
</g>
<defs>
<clipPath id="clip0_1_633">
<rect width="123" height="31.1239" fill="white"/>
</clipPath>
</defs>
</svg>
